<?xml version="1.0" ?><svg height="512px" version="1.1" viewBox="0 0 436 512" width="436px" xmlns="http://www.w3.org/2000/svg" xmlns:sketch="http://www.bohemiancoding.com/sketch/ns" xmlns:xlink="http://www.w3.org/1999/xlink"><title/><desc/><defs/><g fill="none" fill-rule="evenodd" id="Page-1" stroke="none" stroke-width="1"><path d="M276.136351,50.4287542 L304.471689,1.72365298 C305.413155,0.105382967 307.57296,-0.488288245 309.251613,0.473513769 C310.941969,1.44202129 311.511855,3.55441134 310.550628,5.20664618 L282.421137,53.5579216 C318.625542,72.7584893 345.114759,107.638833 352.678697,149.058888 L352.678697,149.058888 L83.3213032,149.058888 C90.8475618,107.845166 117.111017,73.106162 153.038535,53.8460286 L125.449395,5.32727687 C124.507881,3.67151381 125.069738,1.46857004 126.748475,0.484484419 C128.438916,-0.506462063 130.567365,0.073072805 131.528639,1.76358761 L159.340502,50.6740234 C177.119434,42.2927844 197.007854,37.6031061 218,37.6031061 C238.786485,37.6031061 258.490767,42.201345 276.136351,50.4287542 L276.136351,50.4287542 Z M158.335484,107.26297 C166.088849,107.26297 172.374194,101.025413 172.374194,93.3309972 C172.374194,85.6365811 166.088849,79.3990244 158.335484,79.3990244 C150.582119,79.3990244 144.296774,85.6365811 144.296774,93.3309972 C144.296774,101.025413 150.582119,107.26297 158.335484,107.26297 L158.335484,107.26297 L158.335484,107.26297 Z M305.741935,410.283378 L326.803585,410.283378 C342.308336,410.283378 354.877419,397.815454 354.877419,382.434113 L354.877419,166.473854 L81.1225806,166.473854 L81.1225806,382.434113 C81.1225806,397.814837 93.6868172,410.283378 109.196415,410.283378 L130.258065,410.283378 L130.258065,410.283378 L130.258065,490.396245 C130.258065,501.935647 139.71588,511.290181 151.294156,511.290181 L172.396166,511.290181 C184.014079,511.290181 193.432258,501.925452 193.432258,490.396245 L193.432258,410.283378 L242.567742,410.283378 L242.567742,490.396245 C242.567742,501.935647 252.025557,511.290181 263.603834,511.290181 L284.705844,511.290181 C296.323756,511.290181 305.741935,501.925452 305.741935,490.396245 L305.741935,410.283378 L305.741935,410.283378 Z M277.664516,107.26297 C285.417881,107.26297 291.703226,101.025413 291.703226,93.3309972 C291.703226,85.6365811 285.417881,79.3990244 277.664516,79.3990244 C269.911151,79.3990244 263.625806,85.6365811 263.625806,93.3309972 C263.625806,101.025413 269.911151,107.26297 277.664516,107.26297 L277.664516,107.26297 L277.664516,107.26297 Z M0.4,197.815024 L0.4,316.248331 C0.4,333.557581 14.5381892,347.589501 31.9870968,347.589501 C49.4321686,347.589501 63.5741935,333.528368 63.5741935,316.248331 L63.5741935,197.815024 C63.5741935,180.505774 49.4360043,166.473854 31.9870968,166.473854 C14.5420249,166.473854 0.4,180.534987 0.4,197.815024 L0.4,197.815024 Z M404.012903,166.473854 C386.567831,166.473854 372.425806,180.534987 372.425806,197.815024 L372.425806,316.248331 C372.425806,333.557581 386.563996,347.589501 404.012903,347.589501 L404.012903,347.589501 C421.457975,347.589501 435.6,333.528368 435.6,316.248331 L435.6,197.815024 C435.6,180.505774 421.461811,166.473854 404.012903,166.473854 L404.012903,166.473854 L404.012903,166.473854 Z" fill="#adb8c1" id="android"/></g></svg>